<svg xmlns="http://www.w3.org/2000/svg" height="40" viewBox="0 -960 960 960" width="40"><path d="M73.333-129.334q-17.166 0-29.416-12.25t-12.25-30.083v-126.667q0-34.279 23.693-57.972Q79.054-380 113.333-380H251q15.095 0 28.548 7Q293-366 302-352.667q31 44 77.833 68.334Q426.667-260 479.758-260q53.914 0 101.078-24.333 47.164-24.334 78.831-68.334 8.402-13.135 21.321-20.234Q693.907-380 709-380h137.667q34.279 0 58.306 23.694Q929-332.613 929-298.334v126.667q0 17.833-12.583 30.083-12.584 12.25-29.75 12.25h-200q-17.167 0-29.417-12.25-12.249-12.25-12.249-30.083v-57.668q-35.334 25.667-77.438 39.501-42.104 13.833-87.506 13.833-44.724 0-86.724-13.833-42-13.834-77.667-38.834v57.001q0 17.833-12.583 30.083t-29.75 12.25h-200ZM480.31-326.667q-33.309 0-62.809-15.667Q388-358 368.667-384.667 350-411 323.667-426.333q-26.333-15.334-56.333-19 32.666-29.334 95.291-46.5Q425.249-509 480.291-509q55.042 0 117.542 17.167 62.5 17.166 96.5 46.5-31 3.666-57.166 19Q611-411 593.205-384.796 574-357.667 544.221-342.167q-29.78 15.5-63.912 15.5Zm-320.387-140q-51.339 0-86.463-35.537-35.125-35.536-35.125-86.874 0-50.672 35.203-86.13t86.541-35.458q51.339 0 86.797 35.536 35.458 35.537 35.458 86.209 0 51.338-35.537 86.796-35.536 35.458-86.874 35.458Zm640 0q-51.339 0-86.463-35.537-35.125-35.536-35.125-86.874 0-50.672 35.203-86.13t86.541-35.458q51.339 0 86.797 35.536 35.458 35.537 35.458 86.209 0 51.338-35.537 86.796-35.536 35.458-86.874 35.458Zm-320-129q-51.339 0-86.463-35.203-35.125-35.203-35.125-86.541 0-51.339 35.203-86.797t86.541-35.458q51.339 0 86.797 35.537 35.458 35.536 35.458 86.874 0 51.338-35.537 86.463-35.536 35.125-86.874 35.125Z"/></svg>