<svg xmlns="http://www.w3.org/2000/svg" height="40" viewBox="0 -960 960 960" width="40"><path d="M190.333-198.667q-18 0-30.166-12.289Q148-223.245 148-240.789q0-17.544 12.167-29.71 12.166-12.167 30.166-12.167h41.334v-281.001q0-84 49.833-152.166Q331.334-784 413.334-805v-28.667q0-27.722 19.46-46.194 19.461-18.472 47.167-18.472 27.706 0 47.206 18.472 19.499 18.472 19.499 46.194V-805q82 21 132.5 89.333 50.5 68.334 50.5 152v281.001h40.667q17.35 0 29.509 12.167Q812-258.333 812-240.789t-12.158 29.833q-12.159 12.289-29.509 12.289h-580ZM480-62.667q-35.683 0-61.842-25.825Q392-114.317 392-150.667h176q0 36.667-25.825 62.333Q516.35-62.667 480-62.667Z"/></svg>