<svg xmlns="http://www.w3.org/2000/svg" height="40" viewBox="0 -960 960 960" width="40"><path d="M142.666-98.667q-33.724 0-58.862-25.137-25.137-25.138-25.137-58.862V-350h304.334v75.999h235.998V-350h302.334v167.334q0 33.724-25.137 58.862-25.138 25.137-58.862 25.137H142.666ZM447-358v-68h68v68h-68ZM58.667-434v-214q0-33.725 25.137-58.862Q108.942-732 142.666-732h158.668v-93.334q0-33.724 25.137-58.862 25.137-25.137 58.862-25.137h189.334q33.725 0 58.862 25.137 25.137 25.138 25.137 58.862V-732h158.668q33.724 0 58.862 25.138 25.137 25.137 25.137 58.862v214H598.999v-75.999H363.001V-434H58.667Zm326.666-298h189.334v-93.334H385.333V-732Z"/></svg>