<svg xmlns="http://www.w3.org/2000/svg" height="40" viewBox="0 -960 960 960" width="40"><path d="M308.128-527.333q18.205 0 31.038-12.962Q352-553.257 352-571.462q0-18.205-12.962-31.038-12.962-12.833-31.167-12.833-18.205 0-31.038 12.962Q264-589.409 264-571.205q0 18.205 12.962 31.038 12.962 12.834 31.166 12.834Zm174.001 0q18.204 0 31.038-12.962Q526-553.257 526-571.462q0-18.205-12.962-31.038-12.962-12.833-31.167-12.833-18.204 0-31.038 12.962Q438-589.409 438-571.205q0 18.205 12.962 31.038 12.962 12.834 31.167 12.834Zm169.333 0q18.205 0 31.038-12.962 12.833-12.962 12.833-31.167 0-18.205-12.961-31.038-12.962-12.833-31.167-12.833-18.205 0-31.038 12.962-12.833 12.962-12.833 31.166 0 18.205 12.962 31.038 12.962 12.834 31.166 12.834ZM236-229.333l-106 106q-19.667 19.666-45.5 9.114t-25.833-39.114v-672.001q0-33.724 25.137-58.862 25.138-25.137 58.862-25.137h674.668q33.724 0 58.862 25.137 25.137 25.138 25.137 58.862v512.001q0 33.725-25.137 58.862-25.138 25.138-58.862 25.138H236Z"/></svg>