<svg xmlns="http://www.w3.org/2000/svg" height="40" viewBox="0 -960 960 960" width="40"><path d="M217.667-267Q279-308.333 343.364-329.499q64.363-21.167 136.666-21.167t136.637 21.167Q681-308.333 743.667-267q40.333-52.666 57-104.166Q817.334-422.667 817.334-480q0-142-97.667-239.667T480-817.334q-142 0-239.667 97.667T142.666-480q0 57.333 17 108.834 17 51.5 58.001 104.166ZM479.93-430.667q-64.93 0-109.43-44.57-44.5-44.571-44.5-109.5 0-64.93 44.571-109.43 44.57-44.5 109.499-44.5 64.93 0 109.43 44.571 44.5 44.57 44.5 109.5 0 64.929-44.571 109.429-44.57 44.5-109.499 44.5Zm-.308 372q-85.989 0-163.195-33.403-77.205-33.404-134.316-91Q125-240.667 91.834-317.227 58.667-393.788 58.667-480.5q0-86.712 33.64-163.19 33.641-76.478 90.965-133.797 57.324-57.32 133.92-90.583 76.596-33.263 163.308-33.263 86.712 0 163.11 33.66 76.398 33.66 133.422 90.72 57.023 57.06 90.662 133.532 33.639 76.473 33.639 163.244 0 86.489-33.263 163.035-33.263 76.546-90.629 133.87-57.365 57.324-134.016 90.965-76.651 33.64-163.803 33.64Z"/></svg>